<svg width="96" height="96" viewBox="0 0 96 96" fill="none" xmlns="http://www.w3.org/2000/svg">
<path opacity="0.6" fill-rule="evenodd" clip-rule="evenodd" d="M85.9819 61.2879C77.8179 61.2879 73.722 71.178 79.4943 76.9503C80.5575 78.0137 80.5575 79.7383 79.4943 80.8017L73.6317 86.6644C72.5683 87.7278 70.8436 87.7278 69.7802 86.6644C64.0079 80.892 54.1176 84.9882 54.1176 93.1521C54.1176 94.6565 52.8981 95.875 51.3946 95.875H43.1036C41.6 95.875 40.3804 94.6565 40.3804 93.1521C40.3804 84.9782 30.4974 80.8848 24.7178 86.6644C23.6544 87.7278 21.93 87.7278 20.8666 86.6644L15.0039 80.8017C13.9405 79.7383 13.9405 78.0137 15.0039 76.9503C20.7763 71.178 16.6801 61.2879 8.51619 61.2879C7.01169 61.2879 5.79297 60.0683 5.79297 58.5649V55.4818C5.79297 54.8966 6.27017 54.4194 6.85532 54.4194H25.9542C26.521 54.4194 26.9872 54.8635 27.015 55.4297C27.5413 66.1489 36.3992 74.6784 47.2491 74.6784C58.0991 74.6784 66.9569 66.1491 67.4832 55.4299C67.5111 54.8637 67.9774 54.4196 68.5441 54.4196H87.6427C88.2279 54.4196 88.7051 54.8968 88.7051 55.482V58.5651C88.7051 60.0683 87.4864 61.2879 85.9819 61.2879Z" fill="url(#paint0_linear_11417_195686)"/>
<path opacity="0.2" d="M32.3716 55.5726C32.3221 54.9375 32.8187 54.4023 33.4574 54.4023H61.0423C61.6809 54.4023 62.1775 54.9377 62.1281 55.5726C61.5295 63.2444 55.0969 69.2838 47.2498 69.2838C39.4027 69.2838 32.9701 63.2444 32.3716 55.5726Z" fill="#FFAF40"/>
<path fill-rule="evenodd" clip-rule="evenodd" d="M68.9419 46.1254H91.5543C92.5986 46.1254 93.365 45.1118 93.1353 44.0338C91.3788 35.784 84.4117 29.6214 76.0838 29.6214C71.3808 29.6214 67.1127 31.5873 63.9711 34.7839C66.5464 37.9055 68.3233 41.7987 68.9419 46.1254ZM19.9158 8.4707C24.7968 8.4707 28.7535 12.6571 28.7535 17.8213C28.7535 22.9855 24.7968 27.1719 19.9158 27.1719C15.0349 27.1719 11.0781 22.9855 11.0781 17.8213C11.0781 12.6573 15.0349 8.4707 19.9158 8.4707ZM4.44528 46.1254H27.0575C27.6761 41.7989 29.4529 37.9057 32.0283 34.7841C28.8867 31.5876 24.6185 29.6216 19.9156 29.6216C11.5874 29.6216 4.62053 35.7842 2.86405 44.034C2.63462 45.1118 3.40116 46.1254 4.44528 46.1254ZM76.084 8.4707C80.965 8.4707 84.9217 12.6571 84.9217 17.8213C84.9217 22.9855 80.965 27.1719 76.084 27.1719C71.203 27.1719 67.2463 22.9855 67.2463 17.8213C67.2463 12.6573 71.203 8.4707 76.084 8.4707Z" fill="url(#paint1_linear_11417_195686)"/>
<path fill-rule="evenodd" clip-rule="evenodd" d="M68.9419 46.1254H91.5543C92.5986 46.1254 93.365 45.1118 93.1353 44.0338C91.3788 35.784 84.4117 29.6214 76.0838 29.6214C71.3808 29.6214 67.1127 31.5873 63.9711 34.7839C66.5464 37.9055 68.3233 41.7987 68.9419 46.1254ZM19.9158 8.4707C24.7968 8.4707 28.7535 12.6571 28.7535 17.8213C28.7535 22.9855 24.7968 27.1719 19.9158 27.1719C15.0349 27.1719 11.0781 22.9855 11.0781 17.8213C11.0781 12.6573 15.0349 8.4707 19.9158 8.4707ZM4.44528 46.1254H27.0575C27.6761 41.7989 29.4529 37.9057 32.0283 34.7841C28.8867 31.5876 24.6185 29.6216 19.9156 29.6216C11.5874 29.6216 4.62053 35.7842 2.86405 44.034C2.63462 45.1118 3.40116 46.1254 4.44528 46.1254ZM76.084 8.4707C80.965 8.4707 84.9217 12.6571 84.9217 17.8213C84.9217 22.9855 80.965 27.1719 76.084 27.1719C71.203 27.1719 67.2463 22.9855 67.2463 17.8213C67.2463 12.6573 71.203 8.4707 76.084 8.4707Z" fill="url(#paint2_linear_11417_195686)"/>
<path d="M48.0018 31.3096C56.1772 31.3098 63.0183 37.336 64.7411 45.4023C64.9658 46.456 64.2133 47.4473 63.1883 47.4473H32.8143C31.7894 47.4473 31.0368 46.456 31.2616 45.4023C32.9844 37.3359 39.8262 31.3096 48.0018 31.3096ZM48.0018 9.7998C52.9919 9.7998 57.037 14.0148 57.037 19.2139C57.0368 24.4127 52.9918 28.627 48.0018 28.627C43.0119 28.6269 38.9669 24.4127 38.9667 19.2139C38.9669 14.0149 43.012 9.79988 48.0018 9.7998Z" fill="url(#paint3_linear_11417_195686)"/>
<path opacity="0.6" d="M71.7358 30.2012C76.4459 34.5122 80.089 39.9678 82.228 46.1279H68.9429C68.3243 41.8012 66.5465 37.9077 63.9712 34.7861C66.1099 32.61 68.7712 31.0046 71.7358 30.2012ZM19.9165 29.624C24.6192 29.6241 28.8873 31.5898 32.0288 34.7861C29.4535 37.9077 27.6767 41.8014 27.0581 46.1279H8.76709C11.0027 39.6897 14.8814 34.0208 19.9038 29.624C19.9079 29.624 19.9124 29.624 19.9165 29.624Z" fill="url(#paint4_linear_11417_195686)"/>
<defs>
<linearGradient id="paint0_linear_11417_195686" x1="47.249" y1="54.4194" x2="47.249" y2="95.875" gradientUnits="userSpaceOnUse">
<stop stop-color="#FFC940"/>
<stop offset="1" stop-color="#996926"/>
</linearGradient>
<linearGradient id="paint1_linear_11417_195686" x1="2.82324" y1="27.298" x2="93.1762" y2="27.298" gradientUnits="userSpaceOnUse">
<stop stop-color="#D99B00"/>
<stop offset="1" stop-color="#FFDF40"/>
</linearGradient>
<linearGradient id="paint2_linear_11417_195686" x1="47.9997" y1="8.4707" x2="47.9997" y2="46.1254" gradientUnits="userSpaceOnUse">
<stop stop-color="#804A00" stop-opacity="0.7"/>
<stop offset="1" stop-color="#4D3700" stop-opacity="0"/>
</linearGradient>
<linearGradient id="paint3_linear_11417_195686" x1="47.5945" y1="16.1365" x2="47.5945" y2="47.7566" gradientUnits="userSpaceOnUse">
<stop stop-color="white"/>
<stop offset="1" stop-color="#F2E28F"/>
</linearGradient>
<linearGradient id="paint4_linear_11417_195686" x1="45.4986" y1="29.7887" x2="45.4986" y2="46.1103" gradientUnits="userSpaceOnUse">
<stop stop-color="white"/>
<stop offset="1" stop-color="#FFD500" stop-opacity="0.5"/>
</linearGradient>
</defs>
</svg>
