<svg width="96" height="96" viewBox="0 0 96 96" fill="none" xmlns="http://www.w3.org/2000/svg">
<path opacity="0.5" d="M57.793 5.64648C62.9398 5.64648 67.1123 9.81894 67.1123 14.9658V18.7891H59.4482C58.7025 17.8629 57.56 17.2697 56.2783 17.2695H19.3076C17.0602 17.2695 15.2383 19.0915 15.2383 21.3389C15.2384 23.5861 17.0603 25.4082 19.3076 25.4082H29.4541V34.7109H19.3076C17.0604 34.7109 15.2385 36.5331 15.2383 38.7803C15.2383 41.0276 17.0602 42.8496 19.3076 42.8496H29.4541V52.1533H19.3076C17.0602 52.1533 15.2383 53.9753 15.2383 56.2227C15.2383 58.47 17.0603 60.292 19.3076 60.292H29.4541V80.0547H17.79C12.6433 80.0547 8.47095 75.883 8.4707 70.7363V14.9658C8.4707 9.81894 12.6432 5.64648 17.79 5.64648H57.793Z" fill="url(#paint0_linear_11417_195461)"/>
<rect x="34.8232" y="23.7598" width="52.7065" height="67.9224" rx="7.64138" fill="url(#paint1_linear_11417_195461)"/>
<rect x="34.8232" y="23.7598" width="52.7065" height="67.9224" rx="7.64138" fill="url(#paint2_linear_11417_195461)"/>
<path opacity="0.33" d="M87.5293 84.0371C87.5293 88.2572 84.1088 91.6786 79.8887 91.6787H48.001V54.8877C48.001 46.4473 54.8437 39.6045 63.2842 39.6045H87.5293V84.0371Z" fill="url(#paint3_linear_11417_195461)"/>
<path d="M54.2334 75.8306C55.6401 75.8306 56.7802 76.9708 56.7803 78.3774V80.0757C56.7802 81.4823 55.64 82.6225 54.2334 82.6226H43.9551C42.5484 82.6226 41.4073 81.4823 41.4072 80.0757V78.3774C41.4073 76.9707 42.5484 75.8306 43.9551 75.8306H54.2334ZM78.3896 75.8306C79.7964 75.8306 80.9375 76.9707 80.9375 78.3774V80.0757C80.9374 81.4823 79.7963 82.6226 78.3896 82.6226H68.1113C66.7047 82.6225 65.5646 81.4823 65.5645 80.0757V78.3774C65.5645 76.9708 66.7047 75.8307 68.1113 75.8306H78.3896ZM54.2324 64.5073C55.639 64.5073 56.78 65.6477 56.7803 67.0542V68.7524C56.7803 70.1592 55.6392 71.2993 54.2324 71.2993H43.9541C42.5475 71.2992 41.4072 70.1591 41.4072 68.7524V67.0542C41.4075 65.6477 42.5476 64.5075 43.9541 64.5073H54.2324ZM78.3896 64.5073C79.7963 64.5073 80.9374 65.6476 80.9375 67.0542V68.7524C80.9375 70.1592 79.7964 71.2993 78.3896 71.2993H68.1113C66.7047 71.2992 65.5645 70.1591 65.5645 68.7524V67.0542C65.5646 65.6476 66.7048 64.5074 68.1113 64.5073H78.3896Z" fill="url(#paint4_linear_11417_195461)"/>
<rect opacity="0.6" x="41.4155" y="32.8135" width="39.5299" height="24.9049" rx="3.82069" fill="#4F340F"/>
<defs>
<linearGradient id="paint0_linear_11417_195461" x1="37.7915" y1="5.64648" x2="37.7915" y2="80.0547" gradientUnits="userSpaceOnUse">
<stop stop-color="#FFC940"/>
<stop offset="1" stop-color="#996926"/>
</linearGradient>
<linearGradient id="paint1_linear_11417_195461" x1="34.8232" y1="57.7209" x2="87.5298" y2="57.7209" gradientUnits="userSpaceOnUse">
<stop stop-color="#D99B00"/>
<stop offset="1" stop-color="#FFDF40"/>
</linearGradient>
<linearGradient id="paint2_linear_11417_195461" x1="61.1765" y1="23.7598" x2="61.1765" y2="91.6821" gradientUnits="userSpaceOnUse">
<stop stop-color="#804A00" stop-opacity="0.7"/>
<stop offset="1" stop-color="#4D3700" stop-opacity="0"/>
</linearGradient>
<linearGradient id="paint3_linear_11417_195461" x1="53.491" y1="45.2647" x2="86.596" y2="88.4466" gradientUnits="userSpaceOnUse">
<stop stop-color="white"/>
<stop offset="1" stop-color="#FFD500" stop-opacity="0.5"/>
</linearGradient>
<linearGradient id="paint4_linear_11417_195461" x1="57.6951" y1="73.189" x2="57.6951" y2="85.0035" gradientUnits="userSpaceOnUse">
<stop stop-color="white"/>
<stop offset="1" stop-color="#FFF2B2"/>
</linearGradient>
</defs>
</svg>
