<svg width="96" height="96" viewBox="0 0 96 96" fill="none" xmlns="http://www.w3.org/2000/svg">
<path fill-rule="evenodd" clip-rule="evenodd" d="M14.3619 71.6974C6.88263 64.2182 6.88263 52.0921 14.3619 44.6129L47.7188 11.2563C54.333 4.64225 64.5814 3.87724 72.0362 8.96132C75.9688 7.7033 80.4498 8.63462 83.5705 11.7553C86.6911 14.8759 87.6225 19.3568 86.3644 23.2894C91.4486 30.7442 90.6836 40.9924 84.0694 47.6065L50.7124 80.9631C43.2332 88.4423 31.1069 88.4423 23.6277 80.9631L14.3619 71.6974ZM79.7216 24.0145C82.0441 21.6921 82.0441 17.9266 79.7216 15.6041C77.3991 13.2816 73.6336 13.2816 71.3111 15.6041C68.9886 17.9266 68.9886 21.6921 71.3111 24.0145C73.6336 26.337 77.3991 26.337 79.7216 24.0145Z" fill="url(#paint0_linear_11417_195698)"/>
<path fill-rule="evenodd" clip-rule="evenodd" d="M14.3619 71.6974C6.88263 64.2182 6.88263 52.0921 14.3619 44.6129L47.7188 11.2563C54.333 4.64225 64.5814 3.87724 72.0362 8.96132C75.9688 7.7033 80.4498 8.63462 83.5705 11.7553C86.6911 14.8759 87.6225 19.3568 86.3644 23.2894C91.4486 30.7442 90.6836 40.9924 84.0694 47.6065L50.7124 80.9631C43.2332 88.4423 31.1069 88.4423 23.6277 80.9631L14.3619 71.6974ZM79.7216 24.0145C82.0441 21.6921 82.0441 17.9266 79.7216 15.6041C77.3991 13.2816 73.6336 13.2816 71.3111 15.6041C68.9886 17.9266 68.9886 21.6921 71.3111 24.0145C73.6336 26.337 77.3991 26.337 79.7216 24.0145Z" fill="url(#paint1_linear_11417_195698)"/>
<path opacity="0.3" d="M44.4728 34.3537C51.952 26.8747 64.0779 26.8748 71.5571 34.3537L80.8234 43.6199C82.0749 44.8714 83.1162 46.2535 83.9488 47.7217L50.7098 80.9603C43.2305 88.4392 31.104 88.4387 23.6248 80.9596L14.3592 71.6941C13.1077 70.4427 12.0665 69.0605 11.2338 67.5924L44.4728 34.3537Z" fill="url(#paint2_linear_11417_195698)"/>
<path opacity="0.6" d="M24.0138 85.7173C24.7494 86.3258 25.6545 87.0148 26.7757 87.6686C28.9895 88.9596 32.146 90.1736 36.5749 90.1736C45.1528 90.1736 49.8582 85.6233 51.7638 83.78L51.9125 83.6363L70.3383 65.5008C73.9057 61.9684 77.2644 58.6373 79.7312 56.1893C80.9645 54.9653 81.9749 53.9621 82.6769 53.265L83.7723 52.1769C84.9236 51.0329 86.808 51.0061 87.9934 52.1147C89.1654 53.2107 89.2834 55.0344 88.0926 56.2176L88.0916 56.2186C87.7814 56.5259 87.4716 56.8336 87.1618 57.1413L86.9613 57.3404C86.2589 58.038 85.248 59.0417 84.0141 60.2662C81.5462 62.7153 78.186 66.048 74.6165 69.5823L56.1341 87.7732C56.0875 87.8181 56.0411 87.8631 55.9946 87.908L55.9741 87.9279L55.9737 87.9283C53.8301 90.0033 47.6347 96.0001 36.5749 96.0001C30.9224 96.0001 26.7118 94.4263 23.6912 92.6648C22.1951 91.7924 21.0162 90.889 20.128 90.1542C19.5372 89.6654 18.9806 89.1188 18.3456 88.6852L9.33479 79.808C8.1651 78.6557 8.18662 76.798 9.38105 75.6714C10.5617 74.5577 12.4462 74.5769 13.6024 75.716L22.2656 84.2507C22.8727 84.7094 23.4282 85.2328 24.0138 85.7173Z" fill="#996926"/>
<path d="M46.2677 26.1279H50.9009V35.423H46.2677V26.1279ZM46.2677 56.7733H50.9009V66.3932H46.2677V56.7733ZM57.0248 39.6444C56.031 39.022 54.997 38.5079 53.9226 38.102C52.8751 37.669 51.8544 37.3443 50.8606 37.1278C49.8937 36.8843 49.0208 36.7625 48.2419 36.7625C47.1675 36.7625 46.2946 36.979 45.6231 37.4119C44.9785 37.8178 44.6562 38.4402 44.6562 39.2791C44.6562 40.0638 44.9248 40.7133 45.462 41.2274C46.026 41.7145 46.7512 42.1204 47.6375 42.4451C48.5239 42.7428 49.5043 43.0539 50.5786 43.3787C51.653 43.6763 52.7139 44.0281 53.7614 44.434C54.8358 44.8399 55.8162 45.3676 56.7025 46.017C57.6157 46.6394 58.3275 47.4512 58.8378 48.4524C59.375 49.4266 59.6436 50.6443 59.6436 52.1055C59.6436 53.9456 59.1601 55.5015 58.1932 56.7733C57.2263 58.0452 55.8967 59.0193 54.2046 59.6958C52.5393 60.3723 50.6726 60.7106 48.6045 60.7106C47.0466 60.7106 45.5157 60.5211 44.0116 60.1423C42.5075 59.7635 41.0839 59.2358 39.741 58.5593C38.4249 57.8557 37.2296 57.0439 36.1553 56.1239L38.6935 51.0908C39.6604 51.9567 40.7213 52.7144 41.8763 53.3638C43.0581 54.0132 44.2399 54.5138 45.4217 54.8656C46.6035 55.2174 47.6913 55.3933 48.6851 55.3933C50.0012 55.3933 51.0218 55.1362 51.747 54.6221C52.4991 54.1079 52.8751 53.3773 52.8751 52.4302C52.8751 51.6184 52.6065 50.969 52.0693 50.4819C51.5321 49.9948 50.8204 49.5889 49.934 49.2642C49.0477 48.9124 48.0673 48.6012 46.9929 48.3306C45.9186 48.033 44.8442 47.6947 43.7698 47.3159C42.6955 46.91 41.7151 46.4094 40.8288 45.8141C39.9424 45.1917 39.2172 44.4069 38.6532 43.4598C38.116 42.5127 37.8474 41.3086 37.8474 39.8473C37.8474 38.1155 38.304 36.6272 39.2172 35.3824C40.1304 34.1106 41.4062 33.1365 43.0446 32.46C44.683 31.7564 46.59 31.4046 48.7656 31.4046C50.7532 31.4046 52.6871 31.7023 54.5672 32.2976C56.4473 32.8659 58.0858 33.61 59.4824 34.53L57.0248 39.6444Z" fill="url(#paint3_linear_11417_195698)"/>
<path d="M46.2677 26.1279H50.9009V35.423H46.2677V26.1279ZM46.2677 56.7733H50.9009V66.3932H46.2677V56.7733ZM57.0248 39.6444C56.031 39.022 54.997 38.5079 53.9226 38.102C52.8751 37.669 51.8544 37.3443 50.8606 37.1278C49.8937 36.8843 49.0208 36.7625 48.2419 36.7625C47.1675 36.7625 46.2946 36.979 45.6231 37.4119C44.9785 37.8178 44.6562 38.4402 44.6562 39.2791C44.6562 40.0638 44.9248 40.7133 45.462 41.2274C46.026 41.7145 46.7512 42.1204 47.6375 42.4451C48.5239 42.7428 49.5043 43.0539 50.5786 43.3787C51.653 43.6763 52.7139 44.0281 53.7614 44.434C54.8358 44.8399 55.8162 45.3676 56.7025 46.017C57.6157 46.6394 58.3275 47.4512 58.8378 48.4524C59.375 49.4266 59.6436 50.6443 59.6436 52.1055C59.6436 53.9456 59.1601 55.5015 58.1932 56.7733C57.2263 58.0452 55.8967 59.0193 54.2046 59.6958C52.5393 60.3723 50.6726 60.7106 48.6045 60.7106C47.0466 60.7106 45.5157 60.5211 44.0116 60.1423C42.5075 59.7635 41.0839 59.2358 39.741 58.5593C38.4249 57.8557 37.2296 57.0439 36.1553 56.1239L38.6935 51.0908C39.6604 51.9567 40.7213 52.7144 41.8763 53.3638C43.0581 54.0132 44.2399 54.5138 45.4217 54.8656C46.6035 55.2174 47.6913 55.3933 48.6851 55.3933C50.0012 55.3933 51.0218 55.1362 51.747 54.6221C52.4991 54.1079 52.8751 53.3773 52.8751 52.4302C52.8751 51.6184 52.6065 50.969 52.0693 50.4819C51.5321 49.9948 50.8204 49.5889 49.934 49.2642C49.0477 48.9124 48.0673 48.6012 46.9929 48.3306C45.9186 48.033 44.8442 47.6947 43.7698 47.3159C42.6955 46.91 41.7151 46.4094 40.8288 45.8141C39.9424 45.1917 39.2172 44.4069 38.6532 43.4598C38.116 42.5127 37.8474 41.3086 37.8474 39.8473C37.8474 38.1155 38.304 36.6272 39.2172 35.3824C40.1304 34.1106 41.4062 33.1365 43.0446 32.46C44.683 31.7564 46.59 31.4046 48.7656 31.4046C50.7532 31.4046 52.6871 31.7023 54.5672 32.2976C56.4473 32.8659 58.0858 33.61 59.4824 34.53L57.0248 39.6444Z" fill="url(#paint4_linear_11417_195698)"/>
<defs>
<linearGradient id="paint0_linear_11417_195698" x1="18.9949" y1="76.3309" x2="83.5699" y2="11.7552" gradientUnits="userSpaceOnUse">
<stop stop-color="#D99B00"/>
<stop offset="1" stop-color="#FFDF40"/>
</linearGradient>
<linearGradient id="paint1_linear_11417_195698" x1="33.1075" y1="25.8683" x2="69.4577" y2="62.2189" gradientUnits="userSpaceOnUse">
<stop stop-color="#804A00" stop-opacity="0.7"/>
<stop offset="1" stop-color="#4D3700" stop-opacity="0"/>
</linearGradient>
<linearGradient id="paint2_linear_11417_195698" x1="52.0849" y1="29.7588" x2="63.456" y2="74.3255" gradientUnits="userSpaceOnUse">
<stop stop-color="white"/>
<stop offset="1" stop-color="#FFD500" stop-opacity="0.5"/>
</linearGradient>
<linearGradient id="paint3_linear_11417_195698" x1="47.8994" y1="26.4124" x2="47.8994" y2="66.1086" gradientUnits="userSpaceOnUse">
<stop stop-color="white"/>
<stop offset="1" stop-color="#8FF2B8"/>
</linearGradient>
<linearGradient id="paint4_linear_11417_195698" x1="47.8994" y1="26.4124" x2="47.8994" y2="66.1086" gradientUnits="userSpaceOnUse">
<stop stop-color="white"/>
<stop offset="1" stop-color="#FFF2B2"/>
</linearGradient>
</defs>
</svg>
