<svg width="96" height="96" viewBox="0 0 96 96" fill="none" xmlns="http://www.w3.org/2000/svg">
<path opacity="0.4" d="M79.2393 5.64697C84.5223 5.6471 88.8047 9.93033 88.8047 15.2134V47.145C88.8047 47.2407 88.8006 47.3362 88.7979 47.4312L88.8027 47.4282V60.6538C88.8027 62.9375 86.2575 64.2995 84.3574 63.0327L74.876 56.7124L74.8779 56.7114H28.7383C23.4552 56.7114 19.1719 52.4282 19.1719 47.145V15.2134C19.1719 9.93025 23.4552 5.64697 28.7383 5.64697H79.2393Z" fill="url(#paint0_linear_11417_195632)"/>
<path d="M36.5146 84.3214C37.2682 85.2448 37.7789 86.3425 37.9999 87.5138C38.2209 88.685 38.1455 89.893 37.7802 91.0275C37.4148 92.162 36.7711 93.1877 35.9081 94.0099C35.0452 94.832 33.9896 95.4245 32.8388 95.7345C31.3917 96.122 29.8631 96.0824 28.4384 95.6193C27.0137 95.1561 25.754 94.2895 24.8114 93.1251L13.6142 79.3605C14.9644 79.3263 16.3062 79.1345 17.6122 78.7902L29.3427 75.6476L36.5146 84.3214ZM41.2772 21.3898C42.0203 21.1907 42.8121 21.2953 43.4784 21.6798C44.1448 22.0645 44.6318 22.6983 44.831 23.4415L58.3466 73.8829C58.5456 74.626 58.4412 75.4179 58.0565 76.0841C57.6718 76.7504 57.038 77.2365 56.2948 77.4357C55.5516 77.6348 54.76 77.5303 54.0937 77.1456C53.4275 76.761 52.9413 76.1279 52.7421 75.3849C50.5278 67.1209 42.4996 66.115 35.7265 67.9298L16.1103 73.1857C13.1375 73.9821 9.96987 73.5653 7.30459 72.0265C4.63932 70.4876 2.69489 67.9524 1.89834 64.9796L0.39639 59.3751C-0.400068 56.4024 0.0167623 53.2348 1.55557 50.5695C3.09444 47.9042 5.62965 45.9598 8.60244 45.1632L28.2177 39.9064C34.9907 38.0915 41.4405 33.2072 39.2265 24.9435C39.0273 24.2003 39.1308 23.4077 39.5155 22.7413C39.9002 22.0751 40.5341 21.5889 41.2772 21.3898ZM61.4003 55.1964C62.0425 54.772 62.8277 54.6206 63.5819 54.7745L69.9374 56.0753C70.5784 56.2057 71.1566 56.5486 71.578 57.049C71.9995 57.5494 72.2393 58.1781 72.2587 58.8322C72.2781 59.4861 72.0755 60.1279 71.6845 60.6525C71.2934 61.1768 70.7366 61.5537 70.1044 61.7218C69.6706 61.838 69.2153 61.8523 68.7753 61.7628L62.4198 60.462C61.666 60.308 61.0043 59.8606 60.58 59.2189C60.1556 58.5767 60.0032 57.7914 60.1571 57.0372C60.3112 56.2832 60.7582 55.6208 61.4003 55.1964ZM64.8485 42.1056C65.5917 41.9065 66.3834 42.011 67.0497 42.3956C67.716 42.7803 68.2021 43.4141 68.4013 44.1573C68.6003 44.9005 68.4959 45.6922 68.1112 46.3585C67.7266 47.0247 67.0935 47.5109 66.3505 47.7101L60.745 49.212C60.0019 49.411 59.2101 49.3066 58.5438 48.922C57.8776 48.5373 57.3914 47.9034 57.1923 47.1603C56.9933 46.4171 57.0977 45.6254 57.4823 44.9591C57.8671 44.2928 58.5009 43.8067 59.244 43.6075L64.8485 42.1056ZM62.0233 28.0138C62.7917 28.0603 63.5109 28.4093 64.0214 28.9855C64.5318 29.5616 64.7925 30.3177 64.746 31.0861C64.6995 31.8543 64.3494 32.5728 63.7733 33.0831L58.9198 37.3868C58.3437 37.8973 57.5876 38.1579 56.8192 38.1115C56.0511 38.0649 55.3325 37.7148 54.8222 37.1388C54.3119 36.5627 54.0511 35.8074 54.0976 35.0392C54.1441 34.2709 54.4941 33.5525 55.0702 33.0421L59.9237 28.7384C60.4998 28.228 61.2551 27.9674 62.0233 28.0138Z" fill="url(#paint1_linear_11417_195632)"/>
<path d="M36.5146 84.3214C37.2682 85.2448 37.7789 86.3425 37.9999 87.5138C38.2209 88.685 38.1455 89.893 37.7802 91.0275C37.4148 92.162 36.7711 93.1877 35.9081 94.0099C35.0452 94.832 33.9896 95.4245 32.8388 95.7345C31.3917 96.122 29.8631 96.0824 28.4384 95.6193C27.0137 95.1561 25.754 94.2895 24.8114 93.1251L13.6142 79.3605C14.9644 79.3263 16.3062 79.1345 17.6122 78.7902L29.3427 75.6476L36.5146 84.3214ZM41.2772 21.3898C42.0203 21.1907 42.8121 21.2953 43.4784 21.6798C44.1448 22.0645 44.6318 22.6983 44.831 23.4415L58.3466 73.8829C58.5456 74.626 58.4412 75.4179 58.0565 76.0841C57.6718 76.7504 57.038 77.2365 56.2948 77.4357C55.5516 77.6348 54.76 77.5303 54.0937 77.1456C53.4275 76.761 52.9413 76.1279 52.7421 75.3849C50.5278 67.1209 42.4996 66.115 35.7265 67.9298L16.1103 73.1857C13.1375 73.9821 9.96987 73.5653 7.30459 72.0265C4.63932 70.4876 2.69489 67.9524 1.89834 64.9796L0.39639 59.3751C-0.400068 56.4024 0.0167623 53.2348 1.55557 50.5695C3.09444 47.9042 5.62965 45.9598 8.60244 45.1632L28.2177 39.9064C34.9907 38.0915 41.4405 33.2072 39.2265 24.9435C39.0273 24.2003 39.1308 23.4077 39.5155 22.7413C39.9002 22.0751 40.5341 21.5889 41.2772 21.3898ZM61.4003 55.1964C62.0425 54.772 62.8277 54.6206 63.5819 54.7745L69.9374 56.0753C70.5784 56.2057 71.1566 56.5486 71.578 57.049C71.9995 57.5494 72.2393 58.1781 72.2587 58.8322C72.2781 59.4861 72.0755 60.1279 71.6845 60.6525C71.2934 61.1768 70.7366 61.5537 70.1044 61.7218C69.6706 61.838 69.2153 61.8523 68.7753 61.7628L62.4198 60.462C61.666 60.308 61.0043 59.8606 60.58 59.2189C60.1556 58.5767 60.0032 57.7914 60.1571 57.0372C60.3112 56.2832 60.7582 55.6208 61.4003 55.1964ZM64.8485 42.1056C65.5917 41.9065 66.3834 42.011 67.0497 42.3956C67.716 42.7803 68.2021 43.4141 68.4013 44.1573C68.6003 44.9005 68.4959 45.6922 68.1112 46.3585C67.7266 47.0247 67.0935 47.5109 66.3505 47.7101L60.745 49.212C60.0019 49.411 59.2101 49.3066 58.5438 48.922C57.8776 48.5373 57.3914 47.9034 57.1923 47.1603C56.9933 46.4171 57.0977 45.6254 57.4823 44.9591C57.8671 44.2928 58.5009 43.8067 59.244 43.6075L64.8485 42.1056ZM62.0233 28.0138C62.7917 28.0603 63.5109 28.4093 64.0214 28.9855C64.5318 29.5616 64.7925 30.3177 64.746 31.0861C64.6995 31.8543 64.3494 32.5728 63.7733 33.0831L58.9198 37.3868C58.3437 37.8973 57.5876 38.1579 56.8192 38.1115C56.0511 38.0649 55.3325 37.7148 54.8222 37.1388C54.3119 36.5627 54.0511 35.8074 54.0976 35.0392C54.1441 34.2709 54.4941 33.5525 55.0702 33.0421L59.9237 28.7384C60.4998 28.228 61.2551 27.9674 62.0233 28.0138Z" fill="url(#paint2_linear_11417_195632)"/>
<path opacity="0.33" d="M36.5173 84.3223C37.2709 85.2457 37.7816 86.3434 38.0026 87.5146C38.2235 88.6858 38.1473 89.8939 37.7819 91.0283C37.4165 92.1626 36.7736 93.1877 35.9108 94.0098C35.0478 94.8319 33.9924 95.4253 32.8415 95.7354C31.3943 96.123 29.8658 96.0823 28.4411 95.6191C27.0165 95.156 25.7567 94.2902 24.8141 93.126L13.6169 79.3604C14.9671 79.3262 16.3089 79.1354 17.6149 78.791L29.3454 75.6475L36.5173 84.3223ZM39.1169 67.2871C37.9748 67.4137 36.8351 67.6334 35.7292 67.9297L16.113 73.1865C14.7441 73.5533 13.3342 73.6594 11.9508 73.5205L10.027 66.3408C8.65965 61.2377 11.6886 55.9924 16.7917 54.625L34.4557 49.8916L39.1169 67.2871Z" fill="url(#paint3_linear_11417_195632)"/>
<path d="M41.2778 21.3903C42.021 21.1912 42.8136 21.2956 43.48 21.6803C44.1462 22.0651 44.6324 22.699 44.8315 23.4421L58.3472 73.8835C58.5462 74.6266 58.4418 75.4184 58.0571 76.0846C57.6724 76.751 57.0386 77.2371 56.2954 77.4362C55.5522 77.6353 54.7605 77.5309 54.0942 77.1462C53.4281 76.7615 52.9419 76.1284 52.7427 75.3854C50.7331 67.8857 43.9357 66.3635 37.6333 67.5026L30.0835 39.3229C36.1106 37.1581 41.2362 32.4431 39.2271 24.944C39.0279 24.2008 39.1314 23.4082 39.5161 22.7419C39.9008 22.0756 40.5348 21.5895 41.2778 21.3903Z" fill="url(#paint4_linear_11417_195632)"/>
<defs>
<linearGradient id="paint0_linear_11417_195632" x1="53.9883" y1="5.64697" x2="53.9883" y2="63.5177" gradientUnits="userSpaceOnUse">
<stop stop-color="#FFC940"/>
<stop offset="1" stop-color="#996926"/>
</linearGradient>
<linearGradient id="paint1_linear_11417_195632" x1="0.000976562" y1="58.6448" x2="72.26" y2="58.6448" gradientUnits="userSpaceOnUse">
<stop stop-color="#D99B00"/>
<stop offset="1" stop-color="#FFDF40"/>
</linearGradient>
<linearGradient id="paint2_linear_11417_195632" x1="36.1305" y1="21.291" x2="36.1305" y2="95.9985" gradientUnits="userSpaceOnUse">
<stop stop-color="#804A00" stop-opacity="0.7"/>
<stop offset="1" stop-color="#00414D" stop-opacity="0"/>
</linearGradient>
<linearGradient id="paint3_linear_11417_195632" x1="11.1102" y1="57.8708" x2="30.6076" y2="75.3619" gradientUnits="userSpaceOnUse">
<stop stop-color="white"/>
<stop offset="1" stop-color="#FFD500" stop-opacity="0.5"/>
</linearGradient>
<linearGradient id="paint4_linear_11417_195632" x1="48.787" y1="22.3799" x2="48.787" y2="77.1429" gradientUnits="userSpaceOnUse">
<stop stop-color="white"/>
<stop offset="1" stop-color="#F2E28F"/>
</linearGradient>
</defs>
</svg>
