<svg width="96" height="96" viewBox="0 0 96 96" fill="none" xmlns="http://www.w3.org/2000/svg">
<path d="M66.8835 37.7651C50.8282 37.7651 37.7661 50.8272 37.7661 66.8825C37.7661 82.9378 50.8282 95.9998 66.8835 95.9998C82.9388 95.9998 96.0008 82.9378 96.0008 66.8825C96.0008 50.8272 82.9388 37.7651 66.8835 37.7651ZM66.8835 64.2355C71.2624 64.2355 74.8246 67.7976 74.8246 72.1765C74.8246 75.623 72.6049 78.5337 69.5305 79.6301V85.4117H64.2364V79.6301C61.162 78.5337 58.9424 75.623 58.9424 72.1765H64.2364C64.2364 73.637 65.423 74.8236 66.8835 74.8236C68.3439 74.8236 69.5305 73.637 69.5305 72.1765C69.5305 70.7161 68.3439 69.5295 66.8835 69.5295C62.5046 69.5295 58.9424 65.9673 58.9424 61.5884C58.9424 58.142 61.162 55.2313 64.2364 54.1349V48.3533H69.5305V54.1349C72.6049 55.2313 74.8246 58.142 74.8246 61.5884H69.5305C69.5305 60.128 68.3439 58.9414 66.8835 58.9414C65.423 58.9414 64.2364 60.128 64.2364 61.5884C64.2364 63.0489 65.423 64.2355 66.8835 64.2355Z" fill="black"/>
<path opacity="0.5" d="M5.64844 65.2168C11.3593 70.8062 21.6114 74.4338 33.418 74.7598C34.3097 78.5468 35.8231 82.0897 37.8535 85.2822C36.942 85.3269 36.0449 85.4121 35.1191 85.4121C18.7923 85.4121 5.64844 78.4346 5.64844 69.5293V65.2168ZM5.64844 49.334C11.3644 54.9286 21.6289 58.5586 33.4502 58.8789C32.8336 61.4522 32.4717 64.1234 32.4717 66.8828C32.4717 67.7306 32.5379 68.5621 32.5986 69.3945C17.5179 68.7073 5.64844 62.0803 5.64844 53.6475V49.334ZM5.64844 33.4521C11.6353 39.3116 22.5516 43.0596 35.1191 43.0596C37.7009 43.0595 40.1712 42.8646 42.5615 42.5625C39.4102 45.7138 36.8727 49.4752 35.127 53.6475C35.1241 53.6475 35.1218 53.6474 35.1191 53.6475C18.7925 53.6475 5.64877 46.6708 5.64844 37.7656V33.4521ZM35.1191 5.64746C51.4458 5.64759 64.2363 12.9776 64.2363 21.8828C64.2361 30.788 51.4457 37.7645 35.1191 37.7646C18.7924 37.7646 5.64866 30.788 5.64844 21.8828C5.64844 12.9775 18.7923 5.64746 35.1191 5.64746Z" fill="url(#paint0_linear_11417_195618)"/>
<circle cx="66.6364" cy="66.6354" r="29.3644" fill="url(#paint1_linear_11417_195618)"/>
<circle cx="66.6364" cy="66.6354" r="29.3644" fill="url(#paint2_linear_11417_195618)"/>
<path opacity="0.33" d="M76.1504 49.687C83.3002 49.6871 89.7746 52.5765 94.4717 57.2505C95.4648 60.1971 96.0039 63.3527 96.0039 66.6343C96.0039 82.8518 82.8572 95.9985 66.6396 95.9985C63.8922 95.9985 61.2332 95.6202 58.7109 94.9146C53.4677 90.162 50.1739 83.2976 50.1738 75.6636C50.1738 61.3173 61.8041 49.687 76.1504 49.687Z" fill="url(#paint3_linear_11417_195618)"/>
<path d="M64.3453 47.4292H69.2465V56.2936H64.3453V47.4292ZM64.3453 76.6547H69.2465V85.8288H64.3453V76.6547ZM75.7245 60.3194C74.6733 59.7258 73.5794 59.2355 72.4429 58.8484C71.3348 58.4355 70.2551 58.1259 69.2038 57.9194C68.181 57.6872 67.2576 57.571 66.4336 57.571C65.2971 57.571 64.3737 57.7775 63.6634 58.1904C62.9815 58.5775 62.6405 59.171 62.6405 59.971C62.6405 60.7194 62.9247 61.3387 63.4929 61.8291C64.0896 62.2936 64.8567 62.6807 65.7943 62.9903C66.7319 63.2742 67.769 63.571 68.9055 63.8806C70.042 64.1645 71.1643 64.5 72.2724 64.8871C73.4089 65.2742 74.446 65.7774 75.3836 66.3967C76.3496 66.9903 77.1025 67.7645 77.6424 68.7193C78.2106 69.6483 78.4947 70.8096 78.4947 72.2031C78.4947 73.958 77.9833 75.4418 76.9605 76.6547C75.9376 77.8676 74.5312 78.7966 72.7412 79.4418C70.9796 80.0869 69.0049 80.4095 66.8172 80.4095C65.1692 80.4095 63.5497 80.2289 61.9586 79.8676C60.3675 79.5063 58.8617 79.0031 57.441 78.3579C56.0488 77.687 54.7845 76.9128 53.6479 76.0354L56.3329 71.2354C57.3558 72.0612 58.4781 72.7838 59.6998 73.4031C60.95 74.0225 62.2001 74.4999 63.4503 74.8354C64.7004 75.1708 65.8512 75.3386 66.9024 75.3386C68.2946 75.3386 69.3743 75.0934 70.1414 74.6031C70.937 74.1128 71.3348 73.416 71.3348 72.5128C71.3348 71.7386 71.0507 71.1193 70.4824 70.6548C69.9142 70.1903 69.1612 69.8032 68.2236 69.4935C67.286 69.158 66.2489 68.8612 65.1124 68.6032C63.9759 68.3193 62.8394 67.9967 61.7029 67.6354C60.5664 67.2483 59.5294 66.7709 58.5917 66.2032C57.6541 65.6097 56.887 64.8613 56.2903 63.9581C55.7221 63.0548 55.4379 61.9065 55.4379 60.5129C55.4379 58.8613 55.921 57.442 56.887 56.2549C57.853 55.042 59.2026 54.113 60.9358 53.4678C62.6689 52.7969 64.6862 52.4614 66.9877 52.4614C69.0902 52.4614 71.1359 52.7453 73.1248 53.313C75.1137 53.8549 76.8468 54.5646 78.3243 55.442L75.7245 60.3194Z" fill="url(#paint4_linear_11417_195618)"/>
<defs>
<linearGradient id="paint0_linear_11417_195618" x1="34.9424" y1="5.64746" x2="34.9424" y2="85.4121" gradientUnits="userSpaceOnUse">
<stop stop-color="#FFC940"/>
<stop offset="1" stop-color="#996926"/>
</linearGradient>
<linearGradient id="paint1_linear_11417_195618" x1="37.272" y1="66.6354" x2="96.0008" y2="66.6354" gradientUnits="userSpaceOnUse">
<stop stop-color="#D99B00"/>
<stop offset="1" stop-color="#FFDF40"/>
</linearGradient>
<linearGradient id="paint2_linear_11417_195618" x1="66.6364" y1="37.271" x2="66.6364" y2="95.9998" gradientUnits="userSpaceOnUse">
<stop stop-color="#804A00" stop-opacity="0.7"/>
<stop offset="1" stop-color="#4D3700" stop-opacity="0"/>
</linearGradient>
<linearGradient id="paint3_linear_11417_195618" x1="66.6394" y1="49.6936" x2="66.6394" y2="95.9987" gradientUnits="userSpaceOnUse">
<stop stop-color="white"/>
<stop offset="1" stop-color="#FFD500" stop-opacity="0.5"/>
</linearGradient>
<linearGradient id="paint4_linear_11417_195618" x1="66.0714" y1="47.7005" x2="66.0714" y2="85.5575" gradientUnits="userSpaceOnUse">
<stop stop-color="white"/>
<stop offset="1" stop-color="#FFF2B2"/>
</linearGradient>
</defs>
</svg>
